HIERARCHY
ROOT root
{
	OFFSET 0.000000 0.000000 0.000000
	CHANNELS 6 Xposition Yposition Zposition Zrotation Yrotation Xrotation
	JOINT lhip
	{
		OFFSET 0.058581 -0.082280 -0.017664
		CHANNELS 3 Zrotation Yrotation Xrotation
		JOINT lknee
		{
			OFFSET 0.043451 -0.386469 0.008037
			CHANNELS 3 Zrotation Yrotation Xrotation
			JOINT lankle
			{
				OFFSET -0.014790 -0.426874 -0.037428
				CHANNELS 3 Zrotation Yrotation Xrotation
				JOINT ltoe
				{
					OFFSET 0.041054 -0.060286 0.122042
					CHANNELS 3 Zrotation Yrotation Xrotation
					End Site
					{
						OFFSET 0.000000 0.000000 0.000000
					}
				}
			}
		}
	}
	JOINT rhip
	{
		OFFSET -0.060310 -0.090513 -0.013543
		CHANNELS 3 Zrotation Yrotation Xrotation
		JOINT rknee
		{
			OFFSET -0.043257 -0.383688 -0.004843
			CHANNELS 3 Zrotation Yrotation Xrotation
			JOINT rankle
			{
				OFFSET 0.019056 -0.420046 -0.034562
				CHANNELS 3 Zrotation Yrotation Xrotation
				JOINT rtoe
				{
					OFFSET -0.034840 -0.062106 0.130323
					CHANNELS 3 Zrotation Yrotation Xrotation
					End Site
					{
						OFFSET 0.000000 0.000000 0.000000
					}
				}
			}
		}
	}
	JOINT lowerback
	{
		OFFSET 0.004439 0.124404 -0.038385
		CHANNELS 3 Zrotation Yrotation Xrotation
		JOINT upperback
		{
			OFFSET 0.004488 0.137956 0.026820
			CHANNELS 3 Zrotation Yrotation Xrotation
			JOINT chest
			{
				OFFSET -0.002265 0.056032 0.002855
				CHANNELS 3 Zrotation Yrotation Xrotation
				JOINT lowerneck
				{
					OFFSET -0.013390 0.211636 -0.033468
					CHANNELS 3 Zrotation Yrotation Xrotation
					JOINT upperneck
					{
						OFFSET 0.010113 0.088937 0.050410
						CHANNELS 3 Zrotation Yrotation Xrotation
						End Site
						{
							OFFSET 0.000000 0.000000 0.000000
						}
					}
				}
				JOINT lclavicle
				{
					OFFSET 0.071702 0.114000 -0.018898
					CHANNELS 3 Zrotation Yrotation Xrotation
					JOINT lshoulder
					{
						OFFSET 0.122921 0.045205 -0.019046
						CHANNELS 3 Zrotation Yrotation Xrotation
						JOINT lelbow
						{
							OFFSET 0.255332 -0.015649 -0.022946
							CHANNELS 3 Zrotation Yrotation Xrotation
							JOINT lwrist
							{
								OFFSET 0.265709 0.012698 -0.007375
								CHANNELS 3 Zrotation Yrotation Xrotation
								End Site
								{
									OFFSET 0.000000 0.000000 0.000000
								}
							}
						}
					}
				}
				JOINT rclavicle
				{
					OFFSET -0.082954 0.112472 -0.023707
					CHANNELS 3 Zrotation Yrotation Xrotation
					JOINT rshoulder
					{
						OFFSET -0.113228 0.046853 -0.008472
						CHANNELS 3 Zrotation Yrotation Xrotation
						JOINT relbow
						{
							OFFSET -0.260127 -0.014369 -0.031269
							CHANNELS 3 Zrotation Yrotation Xrotation
							JOINT rwrist
							{
								OFFSET -0.269108 0.006794 -0.006027
								CHANNELS 3 Zrotation Yrotation Xrotation
								End Site
								{
									OFFSET 0.000000 0.000000 0.000000
								}
							}
						}
					}
				}
			}
		}
	}
}
MOTION
Frames: 17
Frame Time: 0.033333
-0.659282 0.353937 0.835168 92.734587 3.121890 74.001266 0.817177 -3.366999 -23.075026 -8.085178 3.647075 86.318346 2.934537 11.191395 -24.126411 0.000000 -0.000000 0.000000 -4.043548 1.977312 -43.890199 0.111102 -10.141325 31.819809 6.530639 -9.797520 -4.613305 0.000000 -0.000000 0.000000 1.568024 -6.940150 34.320721 1.885861 -1.336317 -10.422035 1.692873 -2.989418 4.290783 -5.272958 1.274192 -8.285825 1.745270 9.918648 -0.695393 -22.434503 8.795186 -0.597187 -53.514526 -6.974773 14.675777 -158.959277 -73.240012 -176.478891 21.166536 -11.145157 -19.587950 18.644451 -11.190006 1.987606 53.432976 -14.567050 12.600890 -14.557598 75.636681 -3.771250 -15.853156 12.185273 -16.278318 
-0.537907 0.347151 0.831816 94.961367 2.000422 72.061855 1.515771 -3.079997 -24.873265 -8.020369 5.116881 92.933612 3.908183 10.615465 -25.155045 0.000000 -0.000000 0.000000 -2.500993 -0.340037 -38.167836 -1.773008 -7.760069 32.861119 5.102760 -9.387382 -2.292190 0.000000 -0.000000 0.000000 0.439058 -4.561848 33.464570 1.890947 -1.913272 -11.577756 1.773479 -2.839477 5.185552 -5.779448 -1.768596 -3.292388 3.225918 9.581637 -1.342219 -21.025977 10.291683 -0.799586 -51.113664 -5.967450 12.984128 -156.245495 -68.287094 -176.313489 22.717819 -11.894384 -18.855671 17.181718 -12.058697 1.630822 56.053902 -15.105427 10.646582 -16.019134 77.461113 -4.104182 -16.112774 11.806433 -16.862465 
-0.425861 0.341552 0.821683 95.054640 2.014769 69.566453 4.244930 -2.731449 -30.240162 -8.155578 7.362909 90.973216 6.717118 11.569545 -27.933743 0.000000 -0.000000 0.000000 -1.959521 0.515375 -40.091941 -0.162267 -5.187043 49.795650 -0.434095 -12.335437 5.178576 0.000000 -0.000000 0.000000 0.356689 -2.576380 34.494878 1.657894 0.859265 -13.398121 1.200364 -2.525769 7.263768 -5.005173 -4.133327 -4.888356 3.520646 7.269847 3.276751 -21.095979 12.232242 -1.980882 -49.436816 -5.498443 11.685998 -155.294359 -69.230976 -176.786115 22.493693 -11.173121 -19.614890 17.718024 -12.614694 -1.438021 56.668815 -13.807565 11.729892 -27.003328 76.833864 -14.216289 -14.790307 11.505251 -15.885713 
-0.299305 0.337516 0.816502 93.515603 3.499148 67.067478 8.007946 -2.349762 -36.132595 -6.674857 8.874174 71.007277 4.851256 12.704308 -25.393098 0.000000 -0.000000 0.000000 -0.734688 4.183874 -37.653977 -1.925350 -8.740983 64.781198 -1.641728 -12.153051 -8.434094 0.000000 -0.000000 0.000000 0.512991 -1.338620 35.150259 2.382755 3.735331 -8.806522 1.574228 -1.137627 4.176044 -1.667343 -1.534977 -6.252770 0.003311 2.024182 5.836487 -25.163837 12.636794 -1.907978 -49.014529 -1.617753 9.995338 -167.098790 -78.340409 -165.016045 20.448829 -10.963754 -15.095316 22.590179 -7.648309 -1.369623 50.426643 -6.408526 11.955061 -32.361581 71.431098 -20.241373 -18.917971 11.940857 -16.843990 
-0.223936 0.336667 0.818507 95.926166 3.549417 66.461596 5.382312 -4.086953 -36.286260 -8.217380 4.569511 53.108862 4.979176 13.291674 -19.542910 0.000000 -0.000000 0.000000 -0.171476 2.605755 -34.094626 -1.369288 -7.455524 70.028245 -2.491646 -14.797751 -15.541816 0.000000 -0.000000 0.000000 -0.299219 -0.699025 34.667097 2.550611 2.468773 -9.223592 1.906263 -0.643523 4.583410 -0.226405 -2.011573 -5.372614 0.287776 0.642935 6.598906 -25.222108 13.109400 -3.054891 -49.446013 1.466000 10.597436 -161.933361 -85.115860 -172.468404 22.016756 -8.826870 -14.610735 22.514989 -5.541250 -1.954676 49.884923 -3.167850 11.846089 -29.411273 68.124388 -18.167725 -19.201003 12.575007 -12.956437 
-0.128966 0.340134 0.826057 96.157192 3.174764 66.814729 2.493518 -6.467774 -33.136470 -7.477584 -4.241733 32.612809 2.771914 14.504430 -10.703167 0.000000 -0.000000 0.000000 0.545443 1.744088 -30.211353 -1.939405 -6.768957 75.748880 -1.767312 -15.461708 -21.595669 0.000000 -0.000000 0.000000 1.247460 0.172089 32.113301 1.220382 2.791033 -9.666307 0.872867 -0.172853 4.734357 -0.064046 -3.489664 -1.713699 1.459830 -0.275076 4.930804 -24.912995 12.647962 -2.456897 -47.806128 6.124151 10.888566 -81.608641 -87.323503 105.480718 20.596348 -8.783102 -15.999609 20.077017 -3.885084 -2.708174 52.600458 -3.445476 10.751746 -33.644174 69.507629 -21.340704 -18.973621 13.286332 -9.860764 
-0.034142 0.345670 0.830214 94.700357 1.869642 67.653628 1.087843 -8.162579 -29.677260 -5.998367 -6.171116 25.836355 2.281457 14.496329 -9.257838 0.000000 -0.000000 0.000000 -0.752007 1.659771 -30.256301 -3.600815 -6.825683 85.827555 1.741340 -11.973135 -17.626286 0.000000 -0.000000 0.000000 1.515231 1.590388 26.716045 0.759552 3.479242 -6.128057 -0.257272 -0.361184 3.078076 0.596643 -4.314119 2.038961 1.471877 -0.306249 3.305343 -23.915570 11.947176 0.270051 -47.103771 10.531581 10.565919 -57.336460 -84.989201 83.464459 16.660069 -11.964867 -12.698171 18.566343 -3.328379 -2.456327 53.346679 -3.190986 10.198145 -39.851617 74.622263 -26.235277 -16.231542 13.551245 -13.087475 
0.057295 0.352364 0.827636 92.548613 1.546137 66.835477 -0.799507 -5.545359 -28.461690 -5.096531 -5.195154 34.160915 6.837646 12.813465 -2.129571 0.000000 -0.000000 0.000000 -1.950830 1.869728 -33.606860 -0.848402 -6.928991 95.296079 0.415569 -10.467141 -9.445522 0.000000 -0.000000 0.000000 1.346742 0.519800 25.734017 0.961912 4.085027 -7.164262 -0.302742 -0.068601 3.908947 -0.420165 -4.704221 3.053745 0.931080 1.571577 3.710266 -22.477916 12.713272 0.843943 -48.921417 13.775343 10.274050 -52.897226 -80.459746 79.480038 15.666189 -11.375129 -8.789077 17.761966 -2.985207 -3.301978 52.734888 -1.289796 10.371837 -47.137351 78.929650 -32.766686 -13.369534 14.979315 -9.362270 
0.134936 0.355306 0.826710 92.629100 0.808986 63.820890 0.279198 -6.499906 -28.445015 -8.053214 -0.930994 46.698012 6.863927 13.434171 -5.406352 0.000000 -0.000000 0.000000 -3.818539 1.683214 -35.409807 -0.201239 -8.293570 93.160492 0.872864 -10.975690 -11.749612 0.000000 -0.000000 0.000000 -0.195398 -0.016594 30.643326 1.817130 2.742083 -8.650210 -0.158978 -0.402457 4.379131 0.511622 -1.598522 -2.323668 -1.186852 0.586992 7.996189 -23.458320 12.548482 -1.484032 -49.415458 13.683265 11.870596 -37.365302 -76.009171 61.236401 15.126735 -12.164850 -8.633449 20.652333 -2.389943 -6.382351 51.134825 1.287257 13.502074 -60.458962 77.755215 -47.021369 -13.629837 15.130962 -5.612366 
0.224116 0.362614 0.834937 90.795488 -0.016698 63.121866 -1.670503 -4.039549 -24.107954 -6.889351 -1.119257 52.371355 8.538557 14.417940 -15.357314 0.000000 -0.000000 0.000000 -4.375550 1.036716 -38.135225 -2.163393 -9.849478 76.241903 2.840054 -10.780319 -14.322310 0.000000 -0.000000 0.000000 1.123621 -1.100349 30.953552 1.217232 2.682706 -7.536315 -0.822970 -0.315287 4.103186 0.106022 0.833057 -3.665430 -3.337958 0.296030 9.489041 -26.820458 9.651872 -1.582931 -49.818177 8.710691 12.040269 -17.182691 -66.723719 39.823457 13.711814 -13.140485 -3.533031 24.482935 -0.532121 -4.864314 50.832291 4.564330 14.110061 -60.900327 72.641119 -49.398874 -16.864448 14.729996 -7.800775 
0.289804 0.363540 0.849927 89.996975 -0.380837 63.612420 -2.009412 -2.854110 -21.296278 -6.010378 -0.477453 55.358578 8.016350 13.508788 -20.259117 0.000000 -0.000000 0.000000 -2.916848 1.590481 -35.546767 0.607941 -8.748537 57.366256 6.307537 -5.552878 -10.797961 0.000000 -0.000000 0.000000 1.596738 -0.633634 29.824352 1.787777 1.862176 -6.787863 -0.797884 -0.601062 3.093183 -0.607034 1.805911 -1.265834 -4.120427 0.159056 7.525879 -27.240120 7.934219 -0.969413 -52.544949 5.334432 11.917546 -7.761304 -59.119204 31.310656 13.423906 -12.963184 2.507350 25.419513 -0.933046 -4.545281 51.711776 5.719380 14.433891 -51.529374 70.278536 -37.467080 -14.541925 13.366208 -6.586561 
0.352608 0.361598 0.862169 91.012743 -0.618818 64.843548 -2.443315 -2.721587 -19.241334 -6.106233 -0.112753 57.309377 8.373750 12.831693 -23.195040 0.000000 -0.000000 0.000000 -1.584683 2.053484 -32.705182 1.023476 -6.053094 45.590706 7.607881 -6.146669 -0.915203 0.000000 -0.000000 0.000000 1.302038 -0.044076 26.933778 2.503115 0.863427 -5.511607 -0.640475 -0.938335 2.626892 -1.006751 1.378622 -0.903685 -4.171965 0.317971 6.703630 -26.578960 6.742169 -0.068650 -53.946393 2.474681 12.662499 -4.889990 -55.619298 27.176333 14.934024 -12.190023 0.339339 25.317388 -1.892413 -3.953951 52.952674 5.459294 15.932185 -50.670135 69.480411 -35.704211 -13.012011 12.201921 -8.298884 
0.414990 0.358242 0.870098 93.300860 -0.538115 66.452006 -1.820731 -2.272849 -19.600427 -7.683417 0.810963 62.311462 7.224221 10.979052 -22.944115 0.000000 -0.000000 0.000000 -0.348936 1.205854 -28.017443 0.291042 -4.052659 38.468070 2.194181 -4.354010 8.514266 0.000000 -0.000000 0.000000 1.205647 0.547754 23.724664 2.797708 -0.303626 -4.968124 -0.644916 -1.297320 2.308998 -1.442488 0.102789 -0.891322 -3.340615 0.432153 6.062644 -26.102704 6.317291 0.116233 -52.877248 1.410194 12.687285 -7.375789 -56.786719 29.104446 13.969316 -10.525111 -3.043052 24.748904 -3.490038 -3.697945 53.704654 3.894326 16.230709 -48.725625 71.421454 -33.074090 -11.694960 11.017320 -11.881865 
0.469184 0.353930 0.877502 96.165132 0.273895 66.975738 -0.391035 -2.033678 -20.984117 -8.894351 1.150147 68.219430 4.765142 8.929560 -20.678311 0.000000 -0.000000 0.000000 -0.007130 1.659491 -29.003670 -0.691106 -4.499423 45.764024 1.363406 -7.027608 4.013264 0.000000 -0.000000 0.000000 1.177224 -0.000572 23.811517 3.178511 -0.220858 -6.097411 -0.990818 -1.807792 2.172812 -0.682341 -0.358010 -2.950484 -3.239998 -0.614406 7.234775 -26.580928 7.002561 -0.533226 -50.604623 0.371393 12.720847 -9.975144 -60.333280 31.759020 12.425842 -10.678260 -4.496397 24.902295 -4.829780 -5.284557 53.213851 1.525898 17.191047 -46.174893 73.150954 -29.632062 -10.086765 10.679747 -12.241677 
0.514646 0.351939 0.886922 97.527470 0.400585 67.735816 0.629527 -2.119053 -21.549005 -8.606894 1.312389 65.613272 4.590502 9.872316 -22.727809 0.000000 -0.000000 0.000000 -0.495215 1.427957 -27.550396 -0.034055 -5.156887 47.429323 0.765910 -7.979206 0.262613 0.000000 -0.000000 0.000000 1.482422 -0.166926 24.436151 2.755421 0.179510 -6.772008 -1.256516 -1.899146 2.031447 0.302031 -0.480883 -6.010741 -3.553673 -1.293431 8.911022 -28.504086 7.526912 -1.298758 -48.674308 -0.793784 12.210625 -7.838968 -64.078374 28.949958 12.186437 -11.611291 -4.988374 26.398527 -4.964854 -6.058099 51.094223 1.101161 17.560080 -41.479862 72.838800 -24.951724 -9.165779 11.471038 -10.063850 
0.554586 0.350135 0.898466 99.111861 0.033894 70.318275 0.567445 -2.873964 -22.437888 -8.128293 0.371164 55.975652 5.590570 10.710781 -25.060023 0.000000 -0.000000 0.000000 -0.695470 -0.057894 -27.493405 -0.144739 -4.780954 47.959784 0.483625 -8.194365 -2.832477 0.000000 -0.000000 0.000000 0.830305 0.095755 22.654187 2.646976 -0.086045 -7.092863 -1.173061 -1.976298 1.986182 1.195518 -0.279153 -8.317296 -4.012670 -2.092215 10.474827 -29.907653 8.471873 -2.024703 -48.648365 -1.848705 12.017839 -1.774087 -65.288869 22.764516 14.049099 -12.189863 -5.013386 27.918647 -4.845535 -6.171081 49.084354 1.902564 17.883264 -34.205106 69.960418 -17.870525 -8.952694 11.755483 -8.545078 
0.589338 0.350449 0.915491 99.220265 -0.182511 72.176779 -0.001464 -3.225262 -19.715706 -7.909433 -3.248109 41.143968 4.562877 10.152709 -22.922874 0.000000 -0.000000 0.000000 -0.655135 0.019309 -26.183311 -0.352862 -4.945501 46.857142 1.399499 -7.956918 -3.848447 0.000000 -0.000000 0.000000 1.333983 -0.080205 21.861322 1.985787 0.508285 -7.251595 -1.144424 -1.546595 1.595396 0.710488 -0.508868 -9.034394 -3.688471 -2.703871 9.634281 -30.115972 8.714274 -2.614927 -50.831449 -2.217219 12.312798 5.533650 -63.719982 15.201925 16.799753 -11.418207 -5.871710 27.591760 -4.243299 -5.742356 49.625713 2.439305 17.395139 -30.195897 65.750625 -14.202479 -8.970980 10.626665 -7.877782 
